<?xml version="1.0" encoding="utf-8"?>
<!-- Generator: Adobe Illustrator 16.0.3, SVG Export Plug-In . SVG Version: 6.00 Build 0)  -->
<!DOCTYPE svg PUBLIC "-//W3C//DTD SVG 1.1//EN" "http://www.w3.org/Graphics/SVG/1.1/DTD/svg11.dtd">
<svg version="1.1" id="Layer_1" xmlns="http://www.w3.org/2000/svg" xmlns:xlink="http://www.w3.org/1999/xlink" x="0px" y="0px"
	 width="20px" height="20px" viewBox="10.75 481.25 20 20" enable-background="new 10.75 481.25 20 20" xml:space="preserve">
<g id="_x23_020201ff">
	<path fill="#666" d="M18.901,482.856c0.743-0.71,1.801-0.947,2.798-0.977c1.055-0.01,2.11-0.005,3.165-0.005
		c0.004,1.114,0.005,2.228-0.001,3.34c-0.681-0.001-1.364,0.001-2.045-0.001c-0.433-0.027-0.876,0.302-0.955,0.729
		c-0.011,0.744-0.004,1.49-0.004,2.234c1,0.005,2,0,3,0.003c-0.073,1.077-0.206,2.15-0.363,3.218c-0.884,0.009-1.767,0-2.65,0.006
		c-0.008,3.178,0.004,6.355-0.006,9.533c-1.312,0.004-2.625-0.004-3.937,0.003c-0.025-3.178,0.002-6.357-0.014-9.536
		c-0.64-0.007-1.28,0.004-1.92-0.006c0.003-1.068,0-2.137,0.001-3.204c0.64-0.009,1.28,0.001,1.919-0.005
		c0.02-1.038-0.019-2.079,0.021-3.115C17.973,484.251,18.286,483.423,18.901,482.856z"/>
</g>
</svg>
