<?xml version="1.0" encoding="utf-8"?>
<!-- Generator: Adobe Illustrator 16.0.3, SVG Export Plug-In . SVG Version: 6.00 Build 0)  -->
<!DOCTYPE svg PUBLIC "-//W3C//DTD SVG 1.1//EN" "http://www.w3.org/Graphics/SVG/1.1/DTD/svg11.dtd">
<svg version="1.1" id="Layer_1" xmlns="http://www.w3.org/2000/svg" xmlns:xlink="http://www.w3.org/1999/xlink" x="0px" y="0px"
	 width="20px" height="20px" viewBox="10.75 481.25 20 20" enable-background="new 10.75 481.25 20 20" xml:space="preserve">
<g id="_x23_020201ff_1_">
	<path fill="#666" d="M23.095,484.997c0.415-0.314,0.894-0.557,1.415-0.616c-0.072,0.31-0.367,0.476-0.625,0.616
		c0.388-0.117,0.768-0.286,1.177-0.313c0.11-0.005,0.266,0,0.305,0.127c0.058,0.157-0.102,0.28-0.223,0.349
		c-0.447,0.229-0.964,0.263-1.418,0.476c0.934-0.087,1.868,0.275,2.576,0.873c0.846,0.697,1.405,1.706,1.609,2.777
		c0.748,0.2,1.556,0.055,2.258-0.242c-0.353,0.799-1.251,1.163-2.073,1.233c0.683,0.259,1.434,0.303,2.154,0.226
		c-0.571,0.633-1.457,0.88-2.287,0.861c-0.346,1.411-1.168,2.679-2.234,3.656c-2.076,1.879-4.952,2.78-7.729,2.6
		c-2.671-0.161-5.298-1.479-6.875-3.663c0.138,0.081,0.254,0.193,0.386,0.282c1.221,0.885,2.847,1.166,4.299,0.771
		c0.881-0.229,1.68-0.721,2.32-1.365c-0.409,0.029-0.863-0.045-1.16-0.352c-0.184-0.176-0.261-0.467-0.149-0.702
		c0.134-0.297,0.433-0.466,0.715-0.599c-0.927,0.131-1.937-0.302-2.363-1.157c0.313-0.372,0.813-0.492,1.278-0.53
		c-0.541-0.156-1.096-0.35-1.506-0.754c-0.326-0.306-0.539-0.729-0.602-1.17c0.383-0.073,0.767-0.16,1.16-0.143
		c-0.89-0.464-1.704-1.346-1.632-2.411c1.687,0.615,3.347,1.316,4.934,2.164c0.554,0.305,1.015,0.746,1.469,1.182
		c0.439-1.142,0.91-2.286,1.625-3.287c0.383-0.525,0.835-1.017,1.391-1.363C23.266,484.695,23.177,484.846,23.095,484.997z"/>
</g>
</svg>
