<?xml version="1.0" encoding="utf-8"?>
<!-- Generator: Adobe Illustrator 18.0.0, SVG Export Plug-In . SVG Version: 6.00 Build 0)  -->
<!DOCTYPE svg PUBLIC "-//W3C//DTD SVG 1.1//EN" "http://www.w3.org/Graphics/SVG/1.1/DTD/svg11.dtd">
<svg version="1.1" xmlns="http://www.w3.org/2000/svg" xmlns:xlink="http://www.w3.org/1999/xlink" x="0px" y="0px"
	 viewBox="0 -68 168 168" enable-background="new 0 -68 168 168" xml:space="preserve">
<g id="Layer_2">
	<path id="cloudy" fill="#FFFFFF" d="M148.1,6.8c2.7-4.6,4.3-9.9,4.3-15.6c0-16.9-13.8-30.7-30.7-30.7c-0.2,0-0.4,0-0.6,0
		c-6.6-10-17.7-16-29.8-16c-6.1,0-11.9,1.5-17.2,4.4c-6-3.1-12.6-4.8-19.3-4.8C31.8-55.8,13-37.1,13-14c0,7.1,1.8,13.7,5,19.6
		c-5.4,4.4-9,11.1-9,18.6c0,13.1,10.7,23.8,23.8,23.8H132c13.1,0,23.8-10.7,23.8-23.8C155.8,17.3,152.8,11.2,148.1,6.8z M23.7-14
		c0-17.2,14-31.2,31.2-31.2c5.8,0,11.6,1.7,16.6,4.8l3,1.9l2.9-2c4.2-2.9,9-4.4,14.1-4.4c9.4,0,17.9,5.2,22.2,13.5l1.7,3.3l4.3-0.6
		c0.7-0.1,1.4-0.2,2.2-0.2c11,0,20,9,20,20c0,3.8-1.2,7.3-3,10.3c-1-0.3-2-0.6-3-0.8c-5.5-10.6-16.4-17.3-28.5-17.3
		c-2.8,0-5.6,0.4-8.2,1.1c-7.4-9.7-18.8-15.3-31.1-15.3C49.1-30.8,33-17.4,29.3,0.6c-0.6,0.1-1.2,0.3-1.7,0.4
		C25.1-3.4,23.7-8.5,23.7-14z M132,37.2H32.8c-7.2,0-13.1-5.9-13.1-13.1s5.9-13.1,13-13.1h0l6.2,0.4l0.4-5.2
		C40.5-8.5,53-20.1,67.9-20.1c10,0,19.2,5.1,24.5,13.8l2.4,3.9l4.2-1.8c2.6-1.1,5.4-1.7,8.3-1.7c8.9,0,16.7,5.3,20,13.6l1.3,3.3
		l3.6,0c7.1,0.1,12.9,5.9,12.9,13.1C145.1,31.4,139.2,37.2,132,37.2z"/>
</g>
<g id="Your_Icon">
	<g id="Layer_3">
		<polygon fill="#2C3E50" points="65.1,5.7 55.2,22.9 48.9,14.3 37.5,15.1 32,26.4 35.8,36.7 48.5,35.6 61.1,57.3 104.7,60.7 
			114.5,35.6 128.8,36.7 132.9,26.4 127.6,14.5 117.8,15.1 111.7,22 100,4.5 		"/>
	</g>
	<g>
		<polygon fill="#FFFFFF" stroke="#2C3E50" stroke-miterlimit="10" points="67.6,26.4 65,31 67.6,35.6 72.9,35.6 75.5,31 72.9,26.4 
					"/>
		<polygon fill="#FFFFFF" stroke="#2C3E50" stroke-miterlimit="10" points="92,26.4 89.3,31 92,35.6 97.2,35.6 99.9,31 97.2,26.4 		
			"/>
		<path fill="#FFFFFF" stroke="#2C3E50" stroke-miterlimit="10" d="M128.7,11.6l-15-1.4l-2.4,5.2L102.4,0h-8.9L80.8-12.4l-1,5.4
			l-5.2-9.8l-1,6.8l-5.3-9.7l-0.6,6.5L61-23.7L65.3,0h-2.9l-8.9,15.4l-2.4-5.2l-15,1.4l-8.7,15.1l6.3,13.7l11.4-1.1l11.6,20.1
			L56,60.8l-1,1.5l1,1.5l11.5,18.5l0.9,1.4h1.6h24.9h1.6l0.9-1.4l11.5-18.5l1-1.5l-1-1.5l-0.8-1.3l11.6-20.1l11.4,1.1l6.3-13.7
			L128.7,11.6z M45.8,32.7l-8.1,0.8l-3.4-7.4L39,18l8.1-0.8l3.4,7.4L45.8,32.7z M92.7,77.6H72.1l-9.5-15.3l9.5-15.3h20.6l9.5,15.3
			L92.7,77.6z M103.2,51.8l-5.9-9.5L96.5,41h-1.6H69.9h-1.6l-0.9,1.4l-5.9,9.5l-6.9-18.7l12.7-20.3h11.4l3.7,8.6l3.7-8.6h12
			l12.1,20.3L103.2,51.8z M127.1,33.4l-8.1-0.8l-4.7-8.1l3.4-7.4l8.1,0.8l4.7,8.1L127.1,33.4z"/>
	</g>
	<polygon fill="#FFFFFF" stroke="#2C3E50" stroke-miterlimit="10" points="97.2,63.3 95.9,60.7 89.4,64 75.1,64 69,60.8 67.7,63.3 
		74.7,66.9 89.7,66.9 	"/>
</g>
</svg>
